<?xml version="1.0" encoding="utf-8"?>
<!-- Generator: Adobe Illustrator 28.2.0, SVG Export Plug-In . SVG Version: 6.00 Build 0)  -->
<svg version="1.1" id="_x2014_ÎÓÈ_x5F_1" xmlns="http://www.w3.org/2000/svg" xmlns:xlink="http://www.w3.org/1999/xlink"
	 x="0px" y="0px" viewBox="0 0 7000 3267" style="enable-background:new 0 0 7000 3267;" xml:space="preserve">
<style type="text/css">
	.st0{clip-path:url(#SVGID_00000176001281285699602810000002807803137983917983_);}
	.st1{fill:none;stroke:#FFFFFF;stroke-width:5;stroke-miterlimit:10;}
</style>
<g>
	<defs>
		<rect id="SVGID_1_" x="0" width="7000" height="3267"/>
	</defs>
	<clipPath id="SVGID_00000100346282150550439040000011405666556578530472_">
		<use xlink:href="#SVGID_1_"  style="overflow:visible;"/>
	</clipPath>
	<g style="clip-path:url(#SVGID_00000100346282150550439040000011405666556578530472_);">
		<g>
			<path class="st1" d="M-194.7,226.5C448.3-66.6,854.2,388.3,902.1,734.7c25.5,177.7-44.9,338.5-114.2,495.5
				c-34.7,78-41.8,170.7,17.3,241.8c87.7,104.6,227.4,127.3,355.9,122.4c64.2-3,128.5-9.9,193.1-5.1c70.3,6.2,114.3,51,159,70.2
				c111.9,40.6,223,84,308.7,170.8c79.5,82.9,137.7,171.7,237.6,238.8c70.4,48.4,141.7,79,202.9,134.2
				c230.4,208.3,507.8,366.2,822.4,377c92.1,5.1,177.9,8,235.7,33c258,145.4,508.4,307.6,776.6,431.2
				c202.5,93.4,422.2,169.1,646,167.5c238.8-1.7,466.6-108.5,670.1-230.3c124.8-74.7,244.5-157.7,362.7-243.2
				c16-17,15.6-50.1,27.3-72.9c9.6-18.1,13.7-37.8,13.7-56.6c-3.1-122.4,19.4-243.8,97.9-348.4c56.1-73,154-81.9,232.5-47.4
				c173.3,76,350.8,158.9,547.6,138.2c133.6-14.8,252.9-69.1,367.9-130.7"/>
		</g>
		<g>
			<path class="st1" d="M-125,228.8c293.6-127.3,704.9,94.3,818.1,215.7c150.9,161.9,187.6,394.8,104,593.2
				c-50,118.4-157,236.9-102,368.1c107.1,261.5,450.7,226,686.5,185c44.6,40.2,87.8,83,131.9,97.7c72.8,24.3,147.3,39.1,215.6,80.6
				c111.1,66.1,179.5,162.9,268.2,249.7c17.3,15.8,32.6,31.6,52,46.4c55.1,41.5,110.1,71.1,163.2,113.5
				c131.5,105.1,256.8,208.6,402.8,282.4c48.7,24.6,101.3,46.5,155,63.3c71.4,22.4,144.8,35.7,218.9,44.4s148.7,12.6,223.7,16.5
				c32.6,2,65.3,5.9,97,15.8c55.2,23.5,107.2,49.6,158.4,76.4c205,107.1,408.8,217.4,621.4,306.5c102.8,43.1,207.8,81.2,315.2,110
				c105.1,28.2,219,54.1,328.1,52.5c234.6-3.5,465.8-111.5,668.6-225.4c83.8-47.1,165.7-97.5,246.5-149.9
				c40.4-26.2,79.2-54.1,115.4-84.1c1.6-13,1.6-26.8,5.7-39.7c15.3-59.2,19.4-116.5,28.6-176.7c15.3-107.6,54-222.1,155-280.3
				c130.5-76,257,37.5,373.2,90.8c243.7,110.5,521.1,65.1,738-71.4"/>
		</g>
		<g>
			<path class="st1" d="M-125,328.1c423-35,683.5,244.7,732.4,359.2c46.9,107.6,36.7,227-34.7,325.7
				c-55.1,77-114.2,147.1-120.3,239.8c-6.1,102.6,38.7,201.3,111.1,276.4c165.2,168.8,417.1,203.3,639.9,165.9
				c96.9-14.7,141.3,21.1,186.1,56.4c40.8,39.9,82,79.4,121.1,89c110.4,24.2,212.3,70.6,300,144.6
				c74.4,62.2,137.7,125.3,221.3,176.7c141.7,86.9,265.1,166.8,406.9,253.7c41.6,25.5,86,48.5,140.9,70.7
				c125.3,52.6,253.8,105.9,392.7,107c46.5,4.6,93.3,6.8,140.3,6.7c47-0.1,94.1-2.6,141.2-7.3c68,27.1,135.6,55.1,203.1,83.5
				c202.6,85,404.4,172.5,612,242.8c103.5,35,208.5,65.8,315.1,89.1c104.9,22.9,217.2,45.6,324.8,43.7
				c234-4.3,466.1-100.4,674.5-203.7c84.6-41.9,167.6-87,249.7-133.7c41.1-23.4,79.2-50,84.1-113.6c47.8-61.7,44.8-141.6,67.2-213.7
				c26.5-87.8,65.3-179.6,155-221.1c62.2-28.6,131.5-14.8,190.7,17.8c167.2,91.8,336.5,185.6,532.3,174.7
				c143.8-7.9,277.4-63.2,400.1-131.9"/>
		</g>
		<g>
			<path class="st1" d="M-21.5,734.5c83.4,9.7,209.8,73.2,210.8,158.1c2,72-10.2,144.1-13.3,216.1c-8.2,174.7,53,345.4,177.4,477.7
				c194.8,204.3,480.3,245.8,746.9,247.6c80.4,6.2,124.8,35.9,165.3,68.4c40.5,32.5,81.2,64.9,122.2,96.8
				c40.9,31.9,82.2,63.5,123.8,94.4c17.4,7.9,34.8,13.8,53.1,18.7c160.1,41.5,285.5,132.3,429.3,205.3
				c28.6,14.8,57.1,26.6,87.7,37.5c72.4,25.7,141.5,55.8,210.2,86.6c34.4,15.4,73,30.7,122.7,45.7c117.8,31.5,227,83.8,341.2,128.3
				c48.9,19.7,100.9,37.5,153.8,31.5c37.5-4.3,81.1-12.8,140.8-12.8c62.6,1.2,125.3-0.2,187.8-3.3c67,18.3,133.9,37.3,200.7,56.5
				c200.5,57.7,400.6,117.2,603.7,163.8c205,47.1,419,87.8,629.7,86.5c234.5-1.4,467.9-79.6,683.9-168.5c85-35,168.8-72.8,252-112.2
				c41.6-19.7,79.7-43.4,91.9-98.9c39.4-120.3,60.8-247.6,147.5-352.2c75.5-91.8,197.8-73,289.6-11.8
				c142.8,96.7,286.5,174.7,456.8,187.5c167.2,12.8,325.3-46.4,467.1-123.4"/>
		</g>
		<g>
			<path class="st1" d="M-215.1,1514.6c57.7-29.8,119.9,5.7,163.8,44.2c215.2,189.5,449.7,358.3,738.8,396.9
				c91.8,14.9,170.3,26.2,215.6,47.8c203.4,113.1,401.1,237.1,606.1,347.2c53.4,28.7,107.6,56.8,162.6,83.3
				c52.2,24.3,95.1,35.9,135,44.3c67.2,15,132.9,31.8,199.3,47.3c66.4,15.5,135.3,28.6,245.7,23.5c194.1,2.6,368.5,87.5,541.8,167.4
				c80.6,37.5,175.4,45.4,244.3-17c28.4-16.4,72.6-22.3,119.5-28.4c54.7,6.9,109.4,14.1,164.1,21.5c164,22.3,327.9,46.3,492.1,67.1
				c63.8,7.9,118.2,11.8,167.4,14.9c215.8,20.7,431.9,58.3,650.3,41.8c59.5-0.2,118.6-3.8,177.4-10.2
				c176.4-19.2,349.8-63.8,519.5-118.5c85.9-27.7,171-58,255.7-89.6c42.3-15.8,80.8-36.5,93.2-93.1c26.8-109.3,68.6-211.9,142-305.7
				c70.4-89.8,189.7-76,275.3-13.8c147.9,105.6,290.6,199.4,472.1,223.1c176.4,22.7,346.7-30.6,496-113.7"/>
		</g>
		<g>
			<path class="st1" d="M-20.7,2206.3c534.8-30.2,1035.1,226.8,1532.2,393.7c82.8,27.8,166.5,53.8,251,76.2
				c42.3,11.2,85.8,20.5,131.5,27.2c69.6-6.5,136.9-22.3,206.2-30.2c249.8-28.6,486.4,31.6,705.6,151
				c81.6,44.4,198.8,58.2,247.7-34.2c25.2-59.5,90.9-63.4,155.3-64.3c128.9-1.8,257.8-3.3,386.7-4.9c64.5-0.8,126.7-2.7,187.1-5.2
				c74.5-38.5,156-56.2,241.7-42.4c314.1,51.3,622,89.8,924.4,0.1c58.2-7.7,116.2-17.1,174.2-28c57.9-10.9,115.8-23.4,173.7-37.2
				c87.9-21,175.3-44.1,262.5-68.4c43.6-12.2,75.1-41.8,94.1-92.3c40.4-102.9,78.1-211.5,167.9-287.5
				c76.5-64.2,178.4-33.6,249.8,22.7c185.6,148,390.5,285.2,638.3,259.6c127.5-13.8,246.8-56.3,357.8-115.8"/>
		</g>
		<g>
			<path class="st1" d="M-20.7,2618.7c64.6-5.1,129-7.5,193.2-7.6c67.1-1.2,134.1-0.2,218.9-5.5c161.9-11.5,323,12.2,479.1,60.6
				c150.9,47.4,290.6,136.2,451.7,126.3c62.2-3.9,124.4-8.9,187,0.9c56.2,9.2,112.5,17.8,169,25.5c42.3,5.8,86.8,8.5,145.6-5.4
				c172.5-51.5,347.9-94,535.5-55.5c163.2,33.6,294.7,107.6,437.4,175.7c69.3,33.6,161.1,65.1,227.4,6.9
				c44.9-39.5,59.1-92.8,93.8-141.1c9.2-13.8,21.4-25.7,37.3-31.6c44.7-9.2,91.3-16.8,138.7-23.8c94.7-14,189.3-28.3,284-42.4
				c63.1-9.4,121.6-21.2,151.1-49.8c41.6-40,80.4-90.3,143.6-100.2c87.7-13.8,168.2,9.9,252.9,29.6c145.8,33.6,283.5,70.1,430.3,76
				c184.6,7.9,364-40.5,536.5-97.5c61.3-8.3,122.4-17.8,183.3-28.2c101.9-17.3,203.6-37.2,305.2-58.2c8.4-52.1,40.8-63.3,57.3-99.5
				c33.2-100.6,87.2-193.4,189.2-247.6c77.5-40.5,159.1-3.9,223.3,43.4c114.2,84.9,208,178.6,338.5,231.9
				c112.2,45.4,231.5,64.2,352.8,53.3c118.3-10.9,227.4-55.3,330.2-108.7"/>
		</g>
		<g>
			<path class="st1" d="M-20.7,2856.4c36.7-3.6,72.4-8.6,109.1-18.4c151.9-38.5,298.8-79,455.8-67.1
				c207,14.8,387.5,111.5,574.1,190.5c63.2,26.6,129.5,44.4,199.9,34.5c77.5-11.8,133.6-65.1,194.7-105.8
				c54.3,2.2,108.8,4.2,163.3,6c90.7-7.8,174.3-45.3,260-74.9c289.6-102.6,584.3-5.9,840.2,153c66.3,41.5,147.9,79.9,222.3,36.5
				c72.4-42.4,102-118.4,135.7-187.1c19.3-41.7,63-55.8,106.7-70.1c46.6-11.4,93.1-23.1,139.5-34.8c62-15.7,123.9-31.5,185.9-47.1
				c47-12.3,96.9-32,119.4-76.4c26.5-53.3,50-114.5,108.1-140.2c163.2-71.1,325.3,48.4,481.3,96.7c292.7,88.8,593.5,41.5,871.8-64.2
				c36.7-14.8,75.5-18.8,115.5-23.6c68.5-8.5,137-17.9,205.5-27.7c29.9-4.3,59.9-8.7,89.8-13.2c8.4-51.5,43.4-49.3,54.4-84.7
				c34.4-110.3,104.8-222.8,223.1-260.3c118.3-36.5,208,71.1,289.6,142.1c147.9,131.3,318.1,244.8,521.1,246.7
				c149.9,2,296.7-46.4,427-117.2"/>
		</g>
		<g>
			<path class="st1" d="M-20.7,2865.3c31.6-1.7,63.2-5.7,94.8-14.5c263.1-80.9,541.5-96.7,799.4,11.8
				c130.5,55.3,259,135.2,406.9,123.4c83.6-5.9,139.7-66.1,209-109.6c8.2-4.9,15.3-7.9,23.4-11.1c56.5,0,113,0,169.6,0
				c42.4,0,87.7-3.7,153.5-30.5c164.4-70.9,341.8-105.4,527.4-67.9c168.2,33.6,297.7,113.5,440.5,199.4
				c94.8,58.2,216.2,42.4,261-62.2c17.3-40.5,35.7-80.9,62.2-117.6c26.2-34.2,70.4-49.2,114.6-64.5c46.6-12.9,93.2-26.2,139.7-39.7
				c62-17.9,124-36,186.1-53.8c28.8-11.7,50.2-34.4,63.4-61c33.6-73,56.1-156.9,133.6-198.4c78.5-41.5,166.2-9.9,240.6,23.7
				c190.7,86.9,384.4,168.8,597.5,175.7c215.2,6.9,415-70.1,611.8-144.1c16.3-6.9,32.6-10.9,50.1-13c68.5-7.7,136.9-15.9,205.3-24.6
				c32.2-5.8,49.6-37.4,69.9-60.1c14.3-15.8,41.8-22.7,51-43.4c53-118.4,135.6-243.8,276.3-263.5c65.3-8.9,118.3,31.6,163.2,72
				c146.8,133.2,277.4,282.3,478.2,335.6c194.8,52.3,392.6-3.9,559.8-95.7"/>
		</g>
		<g>
			<path class="st1" d="M-20.7,2821.9c51,0.2,100.9-2.8,150.9-14.6c183.5-47.4,358.9-77,550.6-38.5c149.9,30.6,276.3,86.9,415,136.2
				c117.3,41.5,237.6,18.8,337.5-57.2c22.4-16.8,51-23.7,79.5-25.9c56.5,0,113,0,169.6,0c42.4,0,86.4-1.9,132.1-5.2
				c156.3-66.7,324.5-107.2,497.8-87.4c174.4,18.8,322.2,100.7,478.2,170.7c61.2,27.6,137.7,47.4,196.8,2
				c52-40.5,66.3-100.7,100.9-155c8.2-10.9,14.3-22.7,24.5-31.9c48.4-12.1,96.7-24.7,145-37.7s96.4-26.4,144.5-39.8
				c64.2-18,128.3-36.1,192.5-54c25.8-114,67.6-263,205.3-284.7c151.9-23.7,272.3,87.8,403.8,143.1
				c166.2,71.1,344.7,106.6,525.1,94.7c182.5-11.8,343.6-90.8,511.9-154c20.4-7.9,40.8-13.8,62.6-16.9
				c66.8-7.6,133.6-15.8,200.3-24.3c8.4-7.1,12.5-16,17.6-23.9c18.4-28.6,38.7-51.3,55.1-79c62.2-110.5,118.3-239.8,254.9-274.4
				c137.7-34.5,226.4,88.8,306.9,175.7c114.2,122.4,236.6,231,409.9,267.5c183.5,39.5,361-16.8,515.7-100.4"/>
		</g>
		<g>
			<path class="st1" d="M-20.7,2778.6c63.9,0,131.7-3.7,218-22.2c200.1-46.8,407.1-48.7,611,4.6c172.3,45.4,350.8,163.8,525.1,70.1
				c56.1-30.6,116.2-52.3,179.4-52.4c84.8,0,169.6,0,254.3,0c28.2,0.1,55.7-1.8,84.3-8.8c96.9-22.7,183.5-60.2,281.4-71.1
				c212.1-22.7,412,34.5,601.6,124.4c77.5,36.5,187.6,78,254.9,0c44.9-51.3,72.4-116.5,135.7-146.6c59.8-17,111.8-30.4,163.8-44.1
				c50.6-13.1,101.2-26.6,151.7-40.1c62.4-22.1,124.2-44.8,143.5-108.9c29.3-100.5,89.5-210,207.8-234.7
				c77.5-16.8,146.8,14.8,211.1,49.3c197.8,106.6,396.7,207.3,622,213.2c186.6,4.9,371.2-43.4,535.7-128.1
				c89.6-45.5,151-57.3,208.4-63.9c64.2-7.4,125-22.9,164-101.4c2.5-3.7,4.5-7.6,6.6-11.5c8.2-11.8,19.4-19.7,27.5-30.6
				c86.7-108.6,155-260.6,307.9-263.5c187.6-3.9,269.2,199.4,392.6,314.8c218.2,205.3,551.7,201.3,793.8,54.1"/>
		</g>
		<g>
			<path class="st1" d="M-20.7,2735.2c63.9,0,130-1.9,198.2-4.6c272.9-72.3,556.4-41.7,825.6,45.1c113.2,36.5,239.6,42.4,345-18.1
				c41.3-18.8,100.9-22.4,164.8-22.4c84.8,0,169.6,0,254.3,0c42.4,0,86.7-1.8,145-15.6c64.7-14.9,125.9-34.7,192.2-43.6
				c90.8-11.8,176.4-27.6,268.2-12.8c138.7,21.7,262.1,72,391.6,120.4c77.5,28.6,184.6,34.5,228.1-47.8
				c21.6-35.6,57.7-65.1,111.2-82.3c57.9-14.8,115.3-32.4,171.9-53.5c71.5-17.3,142-36.1,209.4-57.4
				c68.5-35.3,89.9-113.2,117.5-178.4c59.1-144.1,231.5-208.3,374.2-125.3c186.6,109.6,365,210.2,583.3,238.8
				c259,33.6,503.7-57.2,719.2-180.5c59-10.2,116-18.8,171.5-25.5c84.1-57.5,126.9-153.3,181-239.1
				c62.2-99.7,171.3-174.7,289.6-170.7c73.4,2,129.5,52.3,172.3,109.6c155,206.3,344.7,412.6,621,392.8
				c123.4-8.9,238.6-54.3,346.8-111"/>
		</g>
		<g>
			<path class="st1" d="M-20.7,2691.9c63.9,0,128-0.2,194.3-1.3c133-11.6,264.6-38.2,399.2-34.3c155,4.9,298.8,43.4,455.8,76
				c105,21.7,208,10.9,299.4-36.1c59.6-2.5,121-4.4,184.9-4.4c113,0,226.1,0,339.1,0c56.5,0,127-15.3,189.8-36.8
				c236.9-88.5,480.6-4.6,707,75.3c75.5,26.6,180.5,36.5,225.8-42.8c21.8-33.4,76.1-46.9,129.8-63.7
				c57.4-14.9,114.3-33.1,170.5-55.3c31.6-11.8,64.2-18.8,96.7-27.4c53.4-16.6,106.7-33.5,135.5-78.2
				c58.4-101.7,98.2-224.1,213.4-283.3c100.9-51.3,209-10.9,298.8,45.4c237.6,149,487.4,255.6,767.8,225
				c136.6-14.8,265.1-58.2,382.2-123.1c84.3-46.7,150.6-75.1,207.1-85.2c53.5-5.3,106.9-11.3,141.1-86.9
				c93.4-145,198.5-343.4,399.3-342.4c141.7,1,209,136.2,286.5,239.8c93.8,124.4,200.9,226,355.9,266.5
				c177.4,45.4,351.8-16.8,503.3-95.3"/>
		</g>
		<g>
			<path class="st1" d="M-20.7,2648.5c63.9,0,127.8,0,191.7,0c67.3-1.4,140.5-7,229.1-17.4c115.5-13.3,229.7-11.3,347,4.5
				c179.5,25.7,353.8,77,531.3,18.8c14.3-3.9,29.6-4.9,45.3-4.7c61.7-0.9,125.2-1.2,189.1-1.2c56.5,0,113,0,169.6,0
				c56.5,0,113,0,169.6,0c68.8,0.9,128-25.7,197.2-41.8c228.6-74.8,466.1,5.2,687.4,74.3c54,16.8,112.2,29.6,167.3,11.6
				c42.1-33.3,97.3-74,186.5-97c89.2-22.9,176.9-52.3,264.1-84.4c18.4-5.9,37.7-10.9,56.6-15.6c54.7-18.3,90.8-59.4,112.3-119.8
				c40.1-116.3,119.7-235.7,256.3-259.4c67.3-11.8,128.5,5.9,185.6,38.5c180.5,101.7,337.5,214.2,548.6,254.6
				c282.5,53.3,544.5-31.6,776.4-167.3c65.9-32,119.2-39.8,172.4-48.3c24-41.1,54.6-76.6,79.1-119c47.9-78,81.6-156.9,160.1-212.2
				c76.5-54.3,157-106.6,253.9-93.8c60.2,8.9,110.1,39.5,147.9,84.9c88.7,103.6,141.7,221.1,244.7,312.9
				c99.9,89.8,229.4,146.1,365,139.2c126.4-5.9,242.7-58.2,352.4-114"/>
		</g>
		<g>
			<path class="st1" d="M-20.7,2605.2c63.9,0,127.8,0,191.7,0c66.1-0.9,132.3-1.8,211.8-8.8c215.5-24.9,427.6,12.6,642.7,30.4
				c44.9,3.9,88.7,1,132.8-9c42.7-9.4,101.9-11.6,162.9-12.6c63.9,0,127.8,0,191.7,0c56.5,0,113,0,169.6,0c56.5,0,113,0,169.6,0
				c44.6-19.3,89.9-39.1,136.7-52.3c46.8-13.2,95.3-19.9,146.3-13c215.2-11.8,417.1,48.4,627.1,102.6c54,13.8,106,2,155-27.6
				c26.5-15.8,56.1-21.7,86.7-27.6c78-14.3,150.9-36,221.8-61.2c70.9-25.2,139.9-53.7,210-81.8c55.6-59.3,74.9-136.3,116.7-206.4
				c53-89.8,138.7-163.8,246.8-171.7c84.6-5.9,159.1,31.6,227.4,79.9c172.3,120.4,342.6,218.1,550.6,242.8
				c208,24.7,412-15.8,595.5-118.4c70.4-39.5,130.5-87.8,207-110.1c50.3-3.5,100.6-7.9,137.6-83.3
				c43.9-126.4,132.6-224.1,250.9-297.1c127.5-77,301.8-57.2,387.5,73c108.1,164.8,201.9,345.4,406.9,400.7
				c177.4,48.4,356.9-6.9,508-95.3"/>
		</g>
		<g>
			<path class="st1" d="M-20.7,2561.8c63.9,0,127.8,0,191.7,0s127.8,0,191.7,0c208-17,415-0.2,623,10.6c47.9,2,96.9-2,143.7-10.6
				c63.9,0,127.8,0,191.7,0c63.9,0,127.8,0,191.7,0c56.5,0,113,0,169.6,0c53.7-2.1,107.4-4.3,145.2-20
				c53.2-28.1,109.6-48.6,168.1-58.3c58.4-9.7,118.8-8.8,180,6c174.4,28.6,344.7,52.3,521.1,94.7c45.9,10.9,90.8,13.8,137.7,3
				c34.7-8.9,66.3-18.8,100.5-23c62.6-6.7,124.7-17.5,186.2-33.3c61.5-15.8,122.3-36.6,182.3-63.1c131.5-58.2,174.4-195.4,253-299.5
				c46.1-64.5,96.8-112.1,168.2-138.7c93.8-35.5,193.7-10.9,273.3,47.4c198.8,148,402.8,283.3,653.6,291.2
				c185.6,4.9,366.1-36.5,530.2-132.3c78.5-45.4,146.8-104.6,236.6-120.9c24.9-1.7,44.3-31.1,65.9-58.6c15.6-20.8,35-39.6,45.2-62.3
				c59.1-127.3,161.1-236.9,299.8-281.3c123.4-38.5,273.3-14.8,348.7,102.6c100.9,155.9,181.5,328.7,365,399.7
				c184.6,71.1,378.3,6.9,533.3-92.3"/>
		</g>
		<g>
			<path class="st1" d="M-20.7,2518.4c128,1.1,256.1,1.4,384.1,1.3c64,0,129.8-0.6,202.6-2.3c90.3-2.2,182.1-0.2,272.9,2.7
				c97.9,2,194.8-3.9,292.7-4.8c64-0.5,128-1.1,192-1.6c64-0.5,128-1,192-1.5c56.6-0.4,113.2-0.8,169.8-1.1
				c52.7-3.5,97.7-15,129-38.4c82.8-64.2,191.9-83.9,298-60.3c54.6,12.3,108.1,25.7,161.1,39c54.4,13.3,108.4,26.5,176.8,38.8
				c105.6,16.1,209.6,52.6,318.8,50.2c57.6-4.6,132.2-7.8,206.2-17.4c73.9-9.6,147.1-25.7,219-49.3
				c69.3-23.7,142.8-46.4,185.6-109.6c60.2-87.8,110.1-169.8,169-252.3c33.9-47.3,67.6-83.5,104.7-108.3
				c36.2-22.6,77.1-39.2,124-47.1c110.1-18.8,206,36.5,282.5,106.6c191.7,177.7,436.4,296.1,702.6,276.4
				c200.9-15.8,379.3-92.8,543.5-214.2c32.6-23.7,65.3-44.4,104.9-53.2c83.7-43.5,113.3-138.2,168.4-215.2
				c64.2-90.8,146.8-154,249.8-187.5c138.7-45.4,307.9-5.9,385.4,125.3c76.5,127.3,131.5,260.6,266.1,347.4
				c124.4,80.9,272.3,91.8,405.8,43.4c70.4-25.7,130.5-67.1,196.6-100.4"/>
		</g>
		<g>
			<path class="st1" d="M-20.7,2475.1c515.7,6,1031.1-15,1546.6-28.1c56.9-1.4,112.1-4.8,165.2-9.8c50.2-24.6,87.9-63.1,136.9-93.7
				c84.6-51.3,182.5-56.3,275.3-28.6c206,60.2,398.7,148,613.9,160.9c212.1,13.8,471.1,26.6,620-143.1
				c77.5-88.8,137.7-186.5,205.4-280.8c40.8-55.2,81.7-102.7,124.1-127.9c41.3-21.8,87-36.4,137.5-41.3
				c88.7-7.9,173.3,27.6,233.5,89.8c188.6,195.4,426.2,355.3,710.7,341.5c237.6-10.9,455.8-123.4,621.7-282
				c25.3-1.8,48.4-18,71-52.8c19-8.7,38.4-16.6,52.7-33.3c43.8-55.3,67.3-118.4,116.2-168.8c64.2-65.1,139.7-117.4,224.3-149
				c141.7-54.3,318.1-11.8,399.7,122.4c99.9,163.8,173.3,358.3,381.4,416.5c175.4,48.4,337.5-31.6,475.8-121.5"/>
		</g>
		<g>
			<path class="st1" d="M-20.7,2431.7c521.2,4,1041.5-34.6,1561.8-60.8c57.4-2.9,110.4-11.7,145.3-46.5
				c110-136.9,307.8-195.1,473-108.3c302.8,156.9,635.3,270.4,979.9,177.7c57.1-14.8,108.1-43.4,145.8-87.8
				c97.9-116.5,186.6-228,274.1-345.6c47.7-64.5,94.1-105.9,143.7-128.8c48.7-18.6,101.5-27.9,158.3-25
				c89.7,4.9,170.3,52.3,225.4,123.4c153,197.4,358.9,347.4,613.9,355.3c214.1,6.9,425.2-74,584.6-210.7
				c68.6-57.8,124.7-83.4,173.2-132.7c106.8-168.8,241.4-351.4,464.8-376.1c145.8-15.8,298.8,49.3,363,180.6
				c58.1,117.5,92.8,246.7,215.2,326.7c116.2,76,249.8,89.8,377.3,51.3c83.6-23.7,147.9-80.9,221.1-121.2"/>
		</g>
		<g>
			<path class="st1" d="M-20.7,2388.4c462,0.1,922.3-44.6,1382.4-83.3c65.7-5.5,131.5-10.9,197.2-16.1c31.4-9.7,59-28.4,80.4-54.1
				c136.6-173.7,370.1-258.6,571-123.4c161.1,108.6,311,198.4,501.7,230c175.4,29.6,380.3,59.2,519-65.1
				c147.9-132.3,254.9-289.2,374.3-442.6c40.8-48.9,83.8-73.1,131.4-86.4c100.9-27.6,207-23.7,296.7,37.5
				c91.8,64.2,131.5,155.9,198.8,237.9c135.6,163.8,341.6,245.8,550.6,236.9c180.5-8.1,337.5-91.8,476.2-197.1
				c46.2-35.1,90.5-72.6,132.9-110.6c75.2-56.5,119-137.4,179.2-210.5c90.8-112.5,207-199.4,352.8-215.2
				c120.3-12.8,246.8,19.7,331.4,108.6c67.3,72,97.9,160.9,135.6,247.7c57.1,127.3,187.6,215.2,330.4,227
				c149.9,10.9,273.3-70.1,387-150.9"/>
		</g>
		<g>
			<path class="st1" d="M-20.7,2345c468.2-3.7,933.5-64.1,1398.6-116.7c64.5-11.8,129-23.4,184-58.1
				c63.2-39.9,110.1-94.2,170.2-140.6c110.1-85.9,249.8-131.3,386.5-89.8c123.4,36.5,202.9,129.3,312,201.3
				c194.8,128.3,417.1,196.4,644.4,141.1c65.3-15.8,123.4-44.4,171.3-90.8c122.4-117.4,229.4-240.8,322.7-377.2
				c49.8-71.4,101-103.8,155.3-125.2c54.1-16,111.1-23.4,170.5-19.7c111.1,6.9,219.2,65.1,269.2,161.9
				c106,205.3,285.5,382.9,531.3,399.7c250.8,18.8,475.2-110.5,649.5-279.3c19.4-18.3,41.8-32.8,66-43.8
				c23.9-46.4,50.1-66.6,74.1-112.6c94.4-128.9,218.8-235.5,373.8-291.8c126.4-45.4,269.2-14.8,376.3,68.1
				c106,81.9,143.8,200.4,206,309.9c55.1,96.7,146.8,165.8,261,184.6c164.2,27.6,297.7-62.2,415.2-154.3"/>
		</g>
		<g>
			<path class="st1" d="M-20.7,2301.6c474-6.2,943.7-81.1,1413-146.5c65-15.3,129.9-30.3,183.4-84.1
				c90.2-92.8,191.1-179.6,317.6-224.1c146.8-53.3,316.1-25.7,427.2,83.9c182.5,180.6,407.9,324.7,674,309.9
				c219.2-10.9,345.7-191.5,473.1-348.4c67.3-80.9,103-181.6,192.8-237.3c45.1-21.4,92.8-34.8,142.7-42
				c155-22.7,321.2,30.6,398.7,167.8c56.1,97.7,88.7,202.3,175.4,280.3c114.2,104.6,268.2,152,422.2,140.2
				c231.5-15.8,414-156.9,574.1-311.9c16.3-16.8,34.7-30.6,55.4-42.4c120-209.2,330-417.5,597.2-398.7
				c166.2,11.8,311,122.4,375.2,270.4c53,121.4,110.1,262.5,254.9,303c85.7,23.7,172.3,6.9,255.9-17.8
				c85.7-25.7,141.7-94.7,213.7-141.5"/>
		</g>
		<g>
			<path class="st1" d="M-20.7,2258.3c478.4-5.9,951.4-92.8,1423.7-168.1c65.6-17.8,129.1-43.8,185.9-106.6
				c139.1-156.3,344.1-276.7,569.4-236.2c153,26.6,242.7,141.1,341.6,242.8c137.7,138.2,329.4,212.2,522.1,191.5
				c312-34.5,433.4-357.3,607.8-568c59.6-26.3,122.7-44.2,187.7-51.1c64.9-6.9,131.7-2.7,198.8,15
				c169.3,44.4,244.7,195.4,304.9,337.5c106,250.7,439.5,311.9,683.2,209.2c73.4-31.6,138.2-74.5,199.6-121.6
				c61.4-47.1,119.5-98.3,179.6-146.5c22.5-22.1,33.8-51.7,53.1-76.4c10.2-12.8,27.5-18.8,37.7-33.6
				c40.8-61.2,74.4-119.4,127.5-167.8c36.7-33.6,79.5-54.3,122.4-83.9c128.5-87.8,287.6-102.6,430.3-53.3
				c185.6,63.2,267.2,238.8,351.8,396.8c40.8,74,108.1,137.2,196.8,149c98.9,12.8,198.8-4.9,284.5-60.2
				c55.1-34.5,96.9-78,146.2-116.4"/>
		</g>
		<g>
			<path class="st1" d="M-20.7,2214.9c480.5-1.1,955.2-95.9,1428.6-177.1c66.2-19.3,128.5-58.3,189.7-122.3
				c145.8-154.3,357.9-264.9,585.3-226.4c175.4,29.6,267.2,170.7,381.4,284.2c127.5,125.3,305.9,186.5,483.3,162.9
				c264.1-34.5,385.4-291.2,519.7-482.7c39-62.4,84.9-87.4,132.1-107.1c144-43.9,300-40,441.3,40c119.3,68.1,166.2,188.5,212.1,304
				c45.9,115.5,151.9,196.4,276.3,230c290.6,78,550.6-102.6,736.5-294.4c32.5-29,65.5-58.7,102.6-116.7
				c34.8-53.7,68.4-108,118.4-149.4c85.7-70.1,169.3-133.2,280.4-161.9c106-26.6,213.1-22.7,314.1,15.8
				c184.6,70.1,267.2,244.8,363,403.7c34.7,56.3,83.6,101.7,147.9,119.4c176.4,48.4,337.5-59.2,449-180.5"/>
		</g>
		<g>
			<path class="st1" d="M-20.7,2171.6c478.4-5.9,951.4-92.8,1423.7-168.1c66.3-18.5,129.4-57.8,192.6-121.1
				c139.6-140.9,337.4-240.6,544.4-227.8c179.5,10.9,304.9,135.2,413,266.5c143.8,174.7,381.4,226,596.5,182.6
				c187.6-113.5,300.8-306.9,423.3-479.8c44.6-65.4,97.3-93.3,152.4-114.7c56-16.3,114.4-26.1,174.8-28.3c7.1-1,13.3-8.9,21.4-10.9
				c2,0,5.1-1,6.1,0c25.5,22.7,57.1,21.7,88.7,27.6c192.7,33.6,315.1,184.6,372.2,359.3c54,165.8,237.6,255.6,410.9,247.7
				c236.6-10.9,416-170.7,572-325c31.2-27.3,63.9-56.2,102.5-112c37.3-52.5,71.9-106.8,121.9-148.3
				c132.6-108.6,289.6-188.5,468-166.8c156,18.8,285.5,102.6,378.3,230c80.6,109.6,121.3,241.8,247.8,302
				c94.8,45.4,196.8,3,284.5-37.5c70.4-32.6,114.2-98.7,172.5-147.5"/>
		</g>
		<g>
			<path class="st1" d="M-20.7,2128.2c474-6.2,943.7-81.1,1413-146.5c66.1-16.9,130-49.4,193.5-111.3
				c205.5-218.8,603.2-337.2,839.7-95.4c125.4,128.3,230.4,274.4,423.2,313.9c100.9,21.7,202.9,32.6,292.7-4.9
				c225.4-93.8,319.2-321.8,450.7-521.1c9.2-12.8,19.4-22.7,30.8-33.7c43.8-19.8,89.4-35.8,136.4-47.7c47-11.9,95.3-19.8,144.8-23.2
				c14.3-1,27.5-6.9,41.8-9.9c18.4-3.9,31.6,10.9,39.8,25.7c8.2,18.8,38.7-2,59.1,3c126.4,29.6,233.5,100.7,303.9,210.2
				c40.8,64.2,60.2,129.3,96.9,194.4c54,95.7,147.9,158.9,260,179.6c115.2,21.7,224.3-2,326.3-49.3c70.9-32.1,130-77.7,185.4-127.7
				c55.4-49.9,107-104.2,162.9-153.4c15.8-13,30.1-25.9,44.3-40.7c63.2-70.1,107.1-149,181.5-207.3
				c102-81.9,214.1-145.1,348.7-158.9c108.1-10.9,214.1,10.9,310,59.2c155,79,230.4,220.1,331.4,357.3
				c40.8,56.3,91.8,100.7,162.1,112.5c83.6,13.8,158.1-22.7,228.4-59.2c69.3-34.5,109.1-102.6,164.6-153.2"/>
		</g>
		<g>
			<path class="st1" d="M-20.7,2084.8c468.2-3.7,933.5-64.1,1398.6-116.7c65.6-14.6,130.3-35.8,193-95.9
				c154.1-148.5,366.2-254.1,592.6-223.5c160.1,21.7,273.3,127.3,370.1,248.7c144.8,182.6,389.5,238.8,608.8,187.5
				c216.2-115.5,329.4-344.5,447.4-543.5c39.4-27.3,81.8-48.2,128.7-60.5c97.9-26.6,209-66.1,303.9-20.7
				c80.6-8.9,157,44.4,227.4,86.9c36.7,22.7,65.3,50.3,93.8,82.9c65.3,74,91.8,159.9,145.8,242.8c89.7,134.2,250.8,184.6,408.9,151
				c168.2-34.8,292.9-136.2,393.1-257.5c33.4-40.4,64.1-83.1,92.7-126.2c31.2-5.2,56.6-25,78.1-46.7
				c170.3-171.7,380.3-335.6,643.4-295.1c236.6,36.5,374.2,211.2,506.8,392.8c50,68.1,123.4,125.3,213.1,114.5
				c69.3-8.9,126.4-38.5,185.6-77c61.2-39.5,93.8-100.7,142.6-149.4"/>
		</g>
		<g>
			<path class="st1" d="M-20.7,2041.5c66,0,132-0.9,197.9-2.6s131.8-4.1,197.7-7.2c131.6-8.1,263.1-13,395-24.5
				c65.8-4.9,131.6-10.2,197.3-15.6c148-12.2,295.9-25.3,443.8-37.6c48.6-9.7,96.4-26,142.6-70.5c210.1-225,620-347.4,860.6-93.8
				c99.9,104.6,186.6,218.1,327.3,270.4c182.5,68.1,398.7,59.2,538.4-86.9c129.5-134.2,225.4-287.2,306.2-449.3
				c55.1-28.2,112.9-50.8,172-66.3c177.4-46.5,367.1-29.2,532.3,91.2c99.9,72,150.9,168.8,212.1,269.4
				c58.1,93.8,151.9,157.9,263.1,172.7c205,26.6,382.4-90.8,505.8-243.8c41.8-51.3,77.5-101.7,122.5-148
				c79.4-32.6,130.4-102.7,198.7-156c137.7-106.6,292.7-187.5,470.1-177.7c253.9,13.8,424.2,201.3,574.1,386.9
				c48.9,60.2,118.3,110.5,199.9,99.7c144.8-18.8,241.7-127.3,317.3-236.6"/>
		</g>
		<g>
			<path class="st1" d="M-20.7,1998.1c65.2,0.5,129.4,0.1,192.9-0.7c39.6-3.3,78.4-7.3,118.1-9.2c145.8-3.9,290.6,8.9,435.6-2.9
				c87.2-6,163-12.5,229.8-16.2c146.4-7.8,292.7-16.3,439-24.2c48.2-7.8,96.3-15.5,142-56.2c105.7-94,224-174,366.7-212.5
				c187.6-51.3,396.7-14.8,520,140.2c141.7,177.7,339.6,301,570,282.3c287.6-24.7,433.4-297.1,566.1-510.7
				c40.3-67.3,89.9-97.3,142-121.7c53.3-19.1,109.2-32.6,167.8-38.8c155-16.8,305.9,13.8,438.5,105.6
				c113.2,78,166.2,185.6,248.8,288.2c84.6,105.6,217.2,153,353.8,126.3c195.8-37.5,315.1-175.7,425.2-327.7
				c18.4-25.7,39.8-48.4,67.9-61.4c18.8-5.7,35.1-15.5,49.4-28.4c124.4-103.6,242.7-205.3,396.7-260.6
				c169.3-60.2,353.8-33.6,510.9,64.2c128.5,79.9,206,190.5,312,290.2c47.9,46.4,110.1,85.9,181.5,72c82.6-15.8,154-59.2,206-121.4
				c33.6-41.5,59.1-84.9,91.9-124.3"/>
		</g>
		<g>
			<path class="st1" d="M-20.7,1954.8c53-0.2,103-6.1,157-16c33.6-5.9,65.3-6.9,98.9-3.9c237.6,22.7,472.1,45.4,706.8,9.2
				c67-2.3,132.8-4.7,197.2-6.6c64.4-1.9,128.9-3.7,193.3-5.5c64.4-1.8,128.9-3.6,189.8-48.2c164.9-135.4,366.8-250.8,594.2-225.2
				c155,16.8,273.3,110.5,370.1,226c186.6,223.1,544.5,296.1,769.9,92.8c115.2-104.6,202.9-228,272.4-362.4
				c36.4-68.8,76.4-114.6,122.2-141.5c141.5-62.9,297.8-89.3,462.9-51.8c211.1,47.4,339.6,198.4,466,358.3
				c77.5,97.7,200.9,148,327.3,127.3c132.6-21.7,235.5-98.7,321.2-195.4c29.6-34.1,53-74.5,80.3-110.5c27.2-36,58.2-67.6,102.9-83.8
				c12.6-4,23.8-8.9,35-16.8c147.9-110.5,276.3-231,462.9-273.4c123.4-28.6,244.7-15.8,358.9,27.6
				c161.1,61.2,273.3,183.6,395.6,299.1c44.9,43.4,98.9,82.9,163.1,83.9c154,2,248.8-138.2,319.6-254.6"/>
		</g>
		<g>
			<path class="st1" d="M-21.8,1910.8c45.9-44.1,115.3-48,176.4-39.2c250.8,37.5,493.5,93.8,741.9,53.3c103-14.1,171-16.2,235-16.7
				c64-0.5,128-1.1,192-1.6c64-0.5,128-1,189.6-41.3c129.2-91.4,258.7-185.2,426.9-214.8c184.6-32.6,373.2,12.8,491.5,156.9
				c136.6,166.8,325.3,283.3,543.5,268.5c305.9-20.7,455.8-306.9,589.4-543.8c12.2-21.7,28.6-41.5,50-54.7
				c41.6-24.8,85.2-43.4,130.2-57.9c90.1-28.9,185.5-42.3,285.8-33.4c179.5,15.8,342.6,98.7,462.9,231.9
				c85.7,94.7,162.1,199.4,293.7,234.9c175.4,46.4,336.5-58.2,440.5-191.5c28-35.5,51.5-76.7,79.9-111.7
				c28.4-35,61.9-63.7,109.8-74.2c21.3-4.6,40.7-13.5,59-27.3c140.7-106.6,270.2-212.2,449.7-251.7
				c293.7-64.2,537.4,103.6,734.2,293.1c60.2,57.2,143.8,111.5,230.4,81.9c73.4-25.7,137.7-74,178.4-141.1
				c24.5-39.5,45.9-78,70.1-116"/>
		</g>
		<g>
			<path class="st1" d="M-77.9,1834.2c50.1-43.5,120.4-45.5,183.6-29.7c305.9,78,599.6,148,917.7,77c35.7-7.9,70.4-11.8,106.3-13.7
				c63.9-0.1,127.8-0.1,191.7-0.2c63.9-0.1,127.8-0.1,190.9-40.3c65.5-45.4,131.1-90.5,201.3-128c70.2-37.5,144.9-67.4,211-82.2
				c36.5-6.3,85.5-8.4,142.7-8c57.2,0.3,103.4,6.7,146.5,18.4c86.2,23.4,165.2,67.6,228.9,134.7c85.7,89.8,160.1,189.5,279.4,236.9
				c85.7,34.5,177.4,53.3,270.2,45.4c105-8.9,203.9-51.3,280.4-123.4c104-97.7,182.5-212.2,243.2-337.7
				c32.2-64.8,66.2-114.7,107.9-141.7c130-63.2,271.9-99,424.9-85.2c245.7,21.7,429.3,178.6,592.4,346.4
				c70.4,71.1,167.2,115.5,269.2,106.6c177.4-14.8,294.7-157.9,379.3-300c27.5-46.4,77.5-70.1,129.1-77.6
				c31.1-4.2,66.9-21.6,112.2-57.2c100.3-75.4,206.3-142.5,326.6-185c154-55.3,324.3-39.5,474.2,23.7
				c138.7,59.2,241.7,156.9,366.1,245.8c57.1,41.5,126.4,74,195.8,49.3c66.3-23.7,119.3-70.1,159.1-129.3
				c29.6-44.4,45.9-91.8,75.4-134.6"/>
		</g>
		<g>
			<path class="st1" d="M-125.4,1755c62.9-48.2,149.5-36.3,218.9-10.7c323.2,118.4,669.9,183.6,1006.8,96
				c91.5-17.3,158.2-19.3,225-21.3c64.1-0.5,128.2-0.9,193.9-44c43.8-31.6,89.5-61.9,137-89.2c45.7-27.4,93.2-51.9,121-74.8
				c77.3-69.1,189.5-39.5,284.7-34.8c76.4,0.3,155.2,0.1,200.6,14.2c127.3,44.6,232.6,134.2,319.1,243.7
				c107.1,136.2,281.4,184.6,449.7,163.8c100.9-12.8,190.7-59.2,262.1-129.3c114.2-112.5,183.5-249.7,263.3-382.5
				c37.9-57.1,85.8-86.3,136.2-110.7c51.9-20.1,106.5-35.6,164.4-44.7c234.5-36.5,461.9,26.6,644.4,173.7
				c131.5,106.6,250.8,259.6,438.5,236.9c162.1-19.7,260-158.9,335.2-284c34.5-55.8,87.3-69.2,143.2-76.4
				c15.2-2.8,28.4-8.8,42.7-13.7c35.7-14.8,63.2-41.5,97.9-58.2c17.3-8.9,34.7-12.8,51-23.7c81.1-51.8,164.9-95,252.1-123.2
				c43.6-14.1,87-24.8,130.8-31c95.3-22.4,192.1,3.2,283.1,27.9c56.1,16.3,103.9,37.2,148.6,61.4c89.4,48.4,174,109.8,262.2,170.5
				c74.4,50.3,164.2,84.9,247.8,31.6c84.6-54.3,125.4-132.3,162.1-217.1c4.1-10.9,10.2-21.7,17.1-31.8"/>
		</g>
		<g>
			<path class="st1" d="M-164.2,1674.1c55.8-39.3,130.2-34.3,192.4-11.6c227.4,85.9,451.7,187.5,698.5,191.5
				c119.3,1,237.6-13.8,351.3-45.8c116.6-34.1,185.8-38.4,254-41.8c64.4-1.1,128.8-2.2,197.9-48.4c41.1-29.4,84.1-57.2,128.6-82.2
				c41.5-25.3,63.7-53.6,69.1-80c9.6-51.2,74.9-47.2,116.7-41.3c123.4,17.8,241.7,33.6,363.6,33.6c94.3,1,146.3,20.2,191.6,46.4
				c90.5,52.3,170.3,125.8,238.1,211.2c100.9,126.3,266.1,161.9,422.2,137.2c262.1-41.5,372.2-286.2,481.1-487.4
				c31.8-52.9,73.8-79.8,118-103.5c45.7-19.6,93.6-35.9,144.3-47.7c261-61.2,517,1,733.2,156.9c130.5,93.8,250.8,219.1,422.2,197.4
				c157-20.7,226.4-166.8,312.8-274.3c37-41.8,90.4-52.9,146.4-59.6c37.5-4.6,72.1-16.5,105.8-35.2c13.3-7.9,25.5-18.8,40.8-22.7
				c25.5-7.9,51-11.8,73.4-28.6c62.2-45.9,129.5-79.7,200-103.3s129.4-42.5,181.8-52.9c127.1-5.7,246.4,47.6,367.6,77.6
				c51.7,23,102.2,50.3,152.3,79.4c50.1,29.1,99.7,59.9,149.7,90c46.9,28.6,94.8,50.3,149.9,51.3c78.5,0,132.6-59.2,177.4-116.5
				c34.7-44.4,64.2-86.9,100.9-127.8"/>
		</g>
		<g>
			<path class="st1" d="M-194.4,1592.2c74.7-47.2,165.5-21.5,239.9,14c133.6,64.2,260,129.3,402.8,171.7
				c254.9,76,521.1,48.4,764.3-40.2c51-15.3,92-23.6,128-26.8c64.8-1.8,129.6-3.6,202.5-52.1c39.8-29.3,79.4-57.2,93.6-91.3
				c14.2-34.1,13-69.3,23.8-92c10.8-22.7,35-31.9,72.5-29.1c37.4,2.8,89.2,15.5,156.4,32.6c67.2,17.1,149.4,31.6,245.2,36.6
				s203.9-5.9,264.4,8.8c57.1,26.6,106,61.9,151,101.9c45,40,86,84.6,127.3,130c169.3,187.5,459.9,157.9,648.5,23.7
				c71.4-104.6,134.6-215.2,181.2-332.1c23.9-58.7,60.5-85.9,98.7-109.8c120.3-58,251.3-94,388-98.9
				c274.3-9.9,505.8,118.4,736.2,268.5c134.6,87.8,313,88.8,410.9-52.3c39.8-57.2,69.3-113.5,112.5-166
				c52.5-10.1,106.9-18.4,162.9-24.5c31.2-3.4,62.4-7,93.5-10.7c46.6-27,88.3-45.4,132.8-66.5c42.6-22.1,86.3-43.1,131.2-61.6
				c42.7-19.3,86.5-36.1,119.1-54.4c51.4-32.8,112.6-44.6,173.8-30.8c140.7,30.6,268.2,74,402.4,112.5
				c41.2,19.9,81.7,41.2,122.4,62.6c40.7,21.4,81.6,42.8,123.7,62.8c55.1,26.6,120.3,44.4,178.4,15.8
				c57.1-28.6,89.7-79.9,127.5-131.3c25.5-33.6,64.2-46.4,95.9-70.5"/>
		</g>
		<g>
			<path class="st1" d="M-216.1,1510.1c61.7-35.2,137.2-28.3,200.4,4.3c176.4,89.8,333.4,197.4,531.3,246.7
				c272.3,69.1,541.5,11.8,790.3-90.8c12.2-5.9,25.5-7.9,39-11.5c68.9-5.6,135.3-9.5,212-58.8c49.8-39.2,35.5-106.3,36.5-160.6
				c1-19.7,6.1-41.5,25.5-52.3c42.8-24.7,91.8-3,134.6,10.9c99.9,32.6,194.8,70.1,300.8,85.9c99.9,14.8,196.8,9.9,294.5,5.5
				c88.5-3.5,135.4,19,176.6,47.2c82.3,56.4,156.5,126,231.5,195.1c168.2,155.9,428.3,95.7,591.4-33.6
				c59.1-93.8,103-194.4,149.9-295.1c12.2-26.6,26.5-54.3,47.8-76.1c45.7-24.4,92.9-45.9,141.3-64.2
				c145.3-54.7,301.8-79.4,463.4-60.1c203.9,23.7,379.3,112.5,558.8,202.3c86.7,43.4,183.5,79,282.5,51.3
				c98.9-26.6,138.7-116.5,192.7-195.4c15.3-21.7,37.7-35.5,64.3-39.3c53.9-7.1,109.9-12.3,166-17.9c31.2-3.1,62.4-6.3,93.6-9.6
				c46.1-24.3,90.8-46.5,130.2-60.5c25-8.8,52.5-11.8,78-21.7c70.9-27.6,140.6-54.9,178-87.7c138.1-90,292,32.4,438.9,59.1
				c27.5,5.9,53,14.8,79.7,20c68.8,15.8,122.8,34.3,171.4,54.3c45.5,20.4,91,40.7,137.4,59c45.9,17.8,97.9,26.6,145.8,9.9
				c61.2-20.7,84.6-79.9,125.4-124.4c11.2-12.8,27.5-17.8,44.3-19.4c32.8-3,45.1-33.2,79.1-33.2"/>
		</g>
		<g>
			<path class="st1" d="M-229.5,1428.7c59.9-31.7,132.3-26.8,191.4,6.8C172,1555.9,347.4,1700,595.2,1746.3
				c262.1,49.3,506.8-19.7,736.9-117.3c89.4-30.3,157.6-36.8,237.5-85.2c-15.9-69.9-55.7-149.9-10.8-218
				c28.6-42.4,87.7-15.8,126.4,1c159.1,70.1,319.2,138.2,495.6,140.2c115.2,1,234.5-31.6,345.4,6.2c48.9,28.7,95.9,61.6,141.7,96.6
				c45.8,35,90.5,72.1,134.9,109.4c85.7,73,199.9,93.8,311,67.1c98.9-23.7,184.6-67.1,250.8-139.2c40.8-44.4,62.2-101.7,85.7-157.9
				c19.4-48.4,36.7-96.7,61.5-143.1c71.8-41.7,146.5-78.5,229.1-102.6c97.9-29.6,197.8-44.4,298.8-48.4
				c251.9-9.9,480.3,95.7,712.8,178.6c81.6,30.6,177.4,48.4,260,4.9c50-25.7,85.7-70.1,111.4-118.6c22.6-41.1,69.1-55.5,121.5-63.1
				c56.2-4,112.4-8.6,168.6-13.5c62.5-5.5,126.3-13.6,192.4-23.6c67.5-29.2,135.5-58.1,205.1-81.9c25.8-41.7,61.5-84.2,111.5-90.1
				c126.4-16.8,237.6,50.3,355.9,86.9c105,31.6,209,46.4,316.1,75c12.2,3,24.5,5.9,36.7,10.9c57.1,23.7,116.2,45.4,179.5,41.5
				c67.3-3.9,110.1-58.2,143.7-107.4c32.8-40.6,94.3-49,162.2-48.8"/>
		</g>
		<g>
			<path class="st1" d="M-235,1348.6c77.6-35.6,165.3-12.9,233.6,37.4c176.4,133.2,337.5,263.5,555.7,318.8
				c267.2,68.1,536.4,8.9,771.3-110.1c51.1-24,94-38.3,134.4-52.2c40.4-13.9,71.7-31.2,51.2-90.1c-13.6-67.4-43.2-155.2,18-206.5
				c29.6-25.7,72.4-5.9,104,10.9c153,79,297.7,161.9,473.1,182.6c130.5,15.8,252.9-5.9,381.4-23.7c12.2-2,24.5-2,36.5-0.7
				c54,27.5,106.2,59.7,157.2,94.5s100.8,72.3,150,110.6c184.6,144.1,448.7,55.3,565.9-127.3c37.7-59.2,55.1-123.4,93.3-180.6
				c30.8-44,71.3-69.5,114.9-89.7c87.1-40.3,177.8-73.2,279.3-91.9c303.9-56.3,576.1,37.5,857.6,119.4c67.3,18.8,136.6,24.7,206,7.9
				c69.3-17.8,107.1-78,157.2-121c32.1-26.4,85.5-32,139-38.1c56.3-3.6,112.5-7.7,168.7-12.2c62.5-5,125-10.4,187.5-16.1
				c34.6-5.5,74.9-18.1,121.2-32.8c64.7-19.7,87.1-68.8,116.5-107.6c53.2-45.4,130.7-38.5,191.9-15.8
				c208,79,417.1,144.1,638.3,162.9c52,18.3,105,18.5,153.3,3.9c48.3-14.6,91.9-44.1,125.1-85.3c34.5-32.7,102.4-33.6,170.3-33.3"/>
		</g>
		<g>
			<path class="st1" d="M-233,1270.7c85.8-33.6,179.6-2,245.9,58.2c193.7,175.7,399.7,342.5,672,372.1
				c222.3,23.7,445.6-28.6,634.4-138c56-32,101.7-50.7,141.6-62c35.7-33.9,11.3-84.3,6.2-125.7c-7.1-60.2-20.4-124.4,17.3-179.6
				c35.7-51.3,98.9-15.8,139.7,10.9c149.9,95.7,285.5,178.6,461.9,209.2c138.7,24.7,264.1-2,400.7-26.6c30.6-5.9,60.2-9.9,89.3-0.8
				c42.6,21.2,84.2,45.1,124.7,71.2c40.5,26.1,80,54.5,118.4,84.6c96.9,76,221.3,105.6,339.6,65.1
				c151.9-53.3,247.8-180.6,308.7-317.2c29.6-49.4,74.2-75.1,120.6-98.3c351.8-174.7,734.2-118.4,1105.3-26.6
				c92.8,23.7,194.8,35.5,278.4-23.7c38.7-26.6,61.2-67.1,103.3-87.9c56.3-2.5,112.6-5.4,168.9-8.8s112.5-7.2,168.7-11.4
				c62.5-4.7,125.1-9.7,187.6-15c34-4.7,69.2-11.4,110.3-22.3c33.2-9.5,51.5-27.7,63.1-56.4c37.4-79.4,135.3-103.1,215.8-74.4
				c197.8,68.1,389.5,155,600.7,164.8c87.6-0.7,148.7-3,199.8-17.2c51.1-14.2,97.2-43.5,131.3-87.4c60.1-7.3,128-8.2,195.9-8.1"/>
		</g>
		<g>
			<path class="st1" d="M-227.2,1217.2c85.2-26.5,174.9,5.1,237.1,65.3c181.5,175.7,366.1,346.4,632.2,391.8
				c263.1,45.4,506.8-26.6,731.1-164.8c60.2-37.5,65.8-104.6,69.8-163.8c-7.6-73.1-27-160.9,30.1-219.2
				c31.6-32.6,81.6-6.9,113.2,17.8c231.5,182.6,517,323.7,811.3,242.8c132.5-34.7,202.2-23.5,260,2.7c53.2,30,105.2,63.7,156.5,99.9
				c85.7,60.2,180.5,101.7,287.6,81.9c187.6-33.6,293.7-191.5,361.6-344.5c49.3-22.4,97.8-47.3,147.2-71
				c49.9-24.8,105.8-45.5,168.2-64.2c57.5-16.7,116-28.9,174.2-36.8c232.9-31.6,474,0,716,44.7c108.1,19.7,220.3,17.8,299.8-68.1
				c25.5-26.6,68.3-28.6,106.2-30.8c56.3-2.8,112.6-5.8,168.9-8.9c56.3-3,112.6-6.1,168.8-8.9c46.9-2.4,93.8-4.8,140.7-7.3
				c46.9-2.4,93.8-4.9,140.7-7.4c27.2-27.6,47.6-60.1,73.1-91.7c76.5-91.8,201.9-48.4,292.7-8.9c177.4,78,361,143.1,555.5,149.1
				c81.5-3.1,137.4-13.2,181.2-30.1c43.8-16.9,83.3-46,117.1-80.5c67.9-3,135.8-5.8,203.7-8.5"/>
		</g>
		<g>
			<path class="st1" d="M-232.2,1260.8c96.2-29.6,192.1,11.8,264.5,75c179.5,159.9,367.1,304,616.9,343.5
				c247.3,38.7,466.9-34.4,676.7-147.2c41.8-22.7,83.2-46.9,121.6-74.2c-8.1-22.3-14.2-45-17.2-69.7c-5.1-35.5-1-70.1-3.1-105.6
				c-4.1-62.2-12.2-135.2,38.7-180.6c41.8-38.5,99.9,2,137.7,31.6c127.5,97.7,248.8,191.5,402.8,235.9
				c176.4,51.3,353.8,23.7,527.2-26.6c24.5-6.9,47.9-10.9,71.9-12.6c45,22.3,89,47.2,132.9,73.3c43.9,26.1,87.9,53.3,132.7,80.5
				c184.6,112.5,405.8,7.9,494.1-162.5c36.9-60.2,77.5-122.3,158.5-164c109.1-68.2,240.6-86,360.8-126.2
				c60.5-12.7,121.9-21.7,183.8-27.8c185.7-18.4,376.1-10.5,562.7,4.8c91.8,6.9,177.4-7.9,258-57.2c7.1-3.9,14.3-5.9,21.9-8
				c53.1-3,108-4.9,164.3-5.7c56.2-0.8,112.5-1.1,168.8-0.8c56.3,0.3,112.6,1.1,169.1,2.7c46.5-0.6,92.6,3.4,138.8,6.4
				c46.2,3.1,92.3,5.3,138.7,1.3c5.1-3,9.2-7.9,13.3-11.8c29.6-35.5,50-77,92.8-97.7c58.1-28.6,125.4-12.8,180.5,11.8
				c226.4,96.7,451.7,189.5,697.5,220.1c46.4,23.2,101.5,35.5,151.9,29.7s96.4-29.8,124.4-79.3c28.6-39.8,98.4-40.8,166.2-44.8"/>
		</g>
		<g>
			<path class="st1" d="M-233.6,1382.8c93.6-40.1,193.5-10.5,276.1,47.7c268.2,189.5,560.8,323.7,899.4,259.6
				c143.8-27.4,262.3-85.9,381.4-153c39.7-22.4,79.5-45.7,120.3-69.1c-6.1-125.3-73.4-285.2,32.6-383.9c30.6-28.6,79.5,0,109.1,24.7
				c227.4,191.5,519,345.4,819.1,255.9c132.5-37.1,216.6-43.9,275.8-21.1c54.4,27,108.1,56.8,161.3,87.9
				c65.3,38.5,135.6,61.2,211.1,55.3c135.6-11.8,241.7-114.5,297.2-228.8c32.8-63.6,61.3-106.2,109.3-126.3
				c52.3-24.9,105.3-43.7,161.4-58.5c132.6-34.5,254.9-76,382.4-115.5c47.9-9.4,95-16.2,141.5-21.6
				c139.6-16.1,274.8-18.9,416.3-36.6c60.2-7.9,117.3-20.7,174.2-36.7c56.8-1.1,113.4-1.1,169.9,0.1c84.7,1.8,169,6.2,253.4,13.2
				c84.3,7,142.2,6.5,212,18.5c53.1,10.3,106.2,21.7,159.5,31.9c53.3,10.2,106.9,19.3,161.1,25c76.2-113.2,235.3-104.3,349.5-49.1
				c142.8,69.1,281.4,139.2,434.6,180.1c69.2,19.2,115.3,45.6,158.4,74.2c39.3,29.6,78.2,60.3,117.7,91.1
				c74.4,58.2,187.6,99.7,253.9,9.9c36.7-48.4,73.4-88.8,112.2-131.7"/>
		</g>
		<g>
			<path class="st1" d="M-205.6,1553.7c75.7-48.1,171.6-45.2,252.1-11.6c244.7,100.7,493.5,208.3,766.8,186.5
				c174.4-13.3,326.9-76.6,476.2-158.6c49.8-27.3,99.1-56.8,148.9-87.1c11.2-21.7,9.2-45.4,6.1-68.1
				c-8.2-79.9-26.5-155.9-14.3-236.9c5.1-41.5,18.4-99.7,65.3-100.7c111.1-3.9,177.4,102.6,269.2,161.9
				c231.5,148,498.6,182.6,750.5,91.8c23.5-8.9,50-13.8,76.7-15.8c41.9-0.4,75.9,6.2,107.7,16.1c56.6,26.4,112.5,55,168.4,83.6
				c149.9,76,326.3,10.9,410.9-127.3c28.6-45.4,53-89.8,71.1-132.1c-5.9-15.9-6.9-32.7,3.3-47.5c24.5-35.5,69.3-35.5,108.1-44.4
				c215.2-47.4,415-94.7,608.8-182.7c60-14.5,120.4-27.7,180.8-41c60.4-13.2,120.8-26.4,180.9-40.7c40.5-9.1,92.1-15.9,144-20.6
				c53.1-4.7,106.5-7.3,160.1-7.5c57.3-0.2,114.5,2.4,171.3,7.4c56.9,5,113.5,12.4,169.9,21.7c67.7,2.7,136,3.7,200.2,30.4
				c67.3,28.1,135.4,53.5,204.3,76c69,22.4,138.8,41.9,209.7,58.1c81.5-62,188.6-90.7,287.5-45.3c111.1,50.3,215.2,106.6,327.3,153
				c63.2,25.7,128.5,46.4,187.2,79.8c41.1,31.7,76.5,66.4,108.9,103c64.9,73.3,123,153.2,187.2,232.7
				c48.9,59.2,124.4,110.5,202.9,78c76.5-31.6,106-110.5,155.7-167.8"/>
		</g>
		<g>
			<path class="st1" d="M-136.4,1734c71.8-68.6,173.8-79.5,272.7-59.7c175.4,34.5,334.5,80.9,507.8,86.9
				c288.6,10.9,542.5-100.7,788.2-261.5c31.6-20.7,27.6-59.3,22.2-97.7c-22.2-103.7-63-238.9,23.7-322.8
				c28.6-27.6,72.4-5.9,102,15.8c142.8,103.6,269.2,209.2,439.5,256.6c150.9,42.4,311,31.6,456.9-21.2
				c77.2-27.2,135.6-40.3,182.5-39.5c33.5,14.4,66.7,29.8,99.8,45.8c78.5,38.5,161.1,74,249.8,67.1c75.5-6.4,136.4-42.7,187.2-91.9
				c50.8-49.2,91.4-111.2,101.8-173.1c-22.8-43.9-9.6-103.2,41.4-118c109.1-32.6,217.2-34.5,331.4-55.3
				c148.9-27.6,280.4-79,407.4-147.9c72.1-39,126.1-56.6,180.6-72.8c157.3-41.7,319.7-70.6,480.7-67.5
				c57.7,1.1,115.3,6.7,172.5,15.9c54.8,7.6,101.5,11.5,129.6,5.1c54.7-9.2,102.6,20.4,148.5,47c151.9,88.8,297.7,170.7,464.6,214.9
				c27.9,12.1,58.5,5.2,80.2,3.5c14.1-3.3,31.4,11.5,39.6,2.7c84.6-92.8,208-30.6,296.7,15.8c95.9,50.3,188.6,93.8,285.5,141.1
				c29.6,13.8,58.1,28.6,83.3,49.2c35.8,32.6,66.9,68.2,94.1,106.7c83.6,119.4,135.6,238.8,188.6,367.2
				c29.6,73,70.4,155.9,159.1,176.7c116.2,26.6,187.6-73,266-132.6"/>
		</g>
		<g>
			<path class="st1" d="M-44.4,1881.7c67.6-93.9,189.9-118.6,302.1-110.7c148.9,9.9,294.7,25.7,443.6,16.8
				c263.1-14.8,493.5-119.4,714.8-272.4c33.6-22.7,58.6-43.9,46.6-92c-28.2-110.3-70-240.6,6.5-344.2
				c44.9-60.2,118.3,3.9,161.1,39.5c110.1,89.8,224.3,162.9,356.9,211.2c206,76,419.1,18.8,617.9-47.4c19.4-5.9,38.7-8.9,59.3-6.8
				c60.2,17.8,117.1,39.9,173.2,63.1c102,42.4,223.3,34.5,310-42.4c65.3-58.2,91.8-134.2,61.3-226.1c-7.2-18.6-15.4-41.3-5.2-58.1
				c34.7-56.3,109.1-62.2,170.3-67.1c234.5-21.7,475.2-41.5,676.4-166.7c80.5-46.2,154.3-97.6,206.5-112.4
				c52.2-14.9,104.8-28.1,157.8-39.2c105.7-22.2,217.7-41.1,325.8-37.4c58.8,2,115.3,7.9,169.9,17.7
				c50.2-59.8,131.7-29.2,182.7,14.3c172.3,146.1,348.7,276.4,563.5,342.7c30,16.6,65.8,0,86.9,3.2c13.4,1.5,27.7,7.4,38.9,1.5
				c31.6-17.8,63.2-32.6,99.9-28.6c42.8,3.9,82.6,17.8,120.3,37.5c140.7,73,285.5,129.3,407.9,224c41,43.4,74.4,89.6,102.2,138.1
				c83.2,145.3,115.3,310.5,149.7,480.8c13.3,65.1,37.7,126.3,97.9,166.8c70.4,48.4,157,40.5,227.4-2
				c44.9-26.6,85.7-53.3,130.6-78.4"/>
		</g>
		<g>
			<path class="st1" d="M-20.7,1942.7c27.5-4.9,54-11.8,75.5-29.5c66.3-55.3,141.7-96.7,228.4-97.7c322.2-5.9,652.6-3.9,945.3-181.6
				c50-30.6,95.9-63.2,142.1-93.8c46.3-30.6,92.9-59.4,82.7-126c-25-111.8-49.5-235.1,2.6-343.7c24.5-49.3,87.7-40.5,126.4-10.9
				c130.5,101.7,247.8,208.3,405.8,260.6c162.1,54.3,340.6,50.3,498.1-14.3c99.2-39.6,171.7-63.5,218.2-52.4
				c42.7,15.3,85.1,31.8,127,48.9c82.6,33.1,168,22.7,238.9-15.5c71-38.2,127.5-104.2,110.3-195.7c-19.9-46.4-57.6-111.5-19.9-145.1
				c116.2-104.6,287.6-57.2,435.4-68.1c249.8-18.8,471.1-134.2,660-283.4c52.4-15.9,105.3-30,158.7-42
				c52.8-11.8,107.3-22.6,162.1-30.1s110-11.4,164.2-9.6c57.2,3.8,117.3-1.2,159.2-50.5c39.8-48.4,102,2,135.6,37.5
				c180.5,187.5,363,375.1,616.8,453c33.7,16.8,67.2,3.3,88,7.4c17.2,3.5,35.5,13.4,50.8,4.5c64.2-37.5,137.7-12.8,196.8,15.8
				c109.1,52.3,211.1,110.5,315.3,168.8c50.2,28.6,83.1,60.6,112.8,95.1c27.2,34.4,51.2,71.4,71.6,110.2
				c90.8,170.7,89.7,357.3,109.1,541.8c9.2,79,42.8,155.9,118.3,199.4c131.5,77,267.2-3,379.2-67.2"/>
		</g>
		<g>
			<path class="st1" d="M-20.7,1938.3c48.9-7.4,86.7-37,125.4-66.6c92.8-71.1,211.1-71.1,320.2-68.1c302.5,7.4,602.2-55.8,856.5-217
				c50.9-32.2,99.9-68.4,146.8-108.7c7.1-14.8,8.2-30.6,4.1-47.4c-23.5-124.4-37.7-240.8-16.3-366.2c5.1-26.6,18.4-52.3,42.8-70.1
				c44.9-30.6,91.8,5.9,125.4,34.5c105,90.8,199.9,184.6,325.3,242.8c170.3,79.9,367.1,93.8,546.6,29.6c79.5-28.6,153-73,236.4-81.4
				c45,11.9,87.9,26.6,130.7,40.9c85.1,27.6,168.8,13.1,236.8-27.7c68.1-40.8,114-110.2,54.4-221.2c-16.9-42.2-24.1-95.5,10.6-129
				c42.8-41.5,106-49.3,164.2-49.3c189.7,0,382.4,18.8,566.9-44.4c141.7-48.4,263.1-132.3,382.2-217.2
				c68.4-47.7,123.5-66.6,177.1-78.9c53.7-12.2,107.8-22,162.2-28.5c54.4-6.5,109.1-9.9,163.8-9.3c65-5.7,92.5-67.9,135.4-108.3
				c56.1-53.3,119.3,16.8,154,63.2c155.5,208.1,328,414.8,565.3,504.2c45.9,16.6,94.3,28.5,131.6,22.9c18.9,2.9,32.1,25.6,47.4,20.7
				c33.6-10.9,65.3-33.6,104-25.7c151.9,29.6,262.1,128.3,394.2,190.8c72.5,39.5,118.5,83.4,153.4,132
				c142.8,199.4,144.8,423.4,150.9,646.5c2,73,23.5,150,91.8,196.4c64.2,44.4,139.7,56.3,214.1,46.4
				c76.5-10.9,138.7-59.2,206.2-91.7"/>
		</g>
	</g>
</g>
</svg>
